# xmcd
#
# Track frame offsets: 
#        150
#        10835
#        23087
#        32555
#        42357
#        53835
#        64332
#        77905
#        88632
#        100632
#        117295
#        135017
#        146497
#        161142
#        171527
#        188060
#        195910
#        210130
#        223257
#        238152
#
# Disc length: 3407 seconds
#
# Revision: 0
# Processed by: cddbd v1.5.2PL0 Copyright (c) Steve Scherf et al.
# Submitted via: ExactAudioCopyFreeDBPlugin 1.0
#
DISCID=0b0d4d14
DTITLE=キング男声合唱団他 - 軍歌メモリアル
DYEAR=1900
DGENRE=Country
TTITLE0=関東軍軍歌
TTITLE1=独立守備隊
TTITLE2=北支派遣軍の歌
TTITLE3=上海派遣軍の歌
TTITLE4=台湾軍の歌
TTITLE5=南支派遣軍の歌
TTITLE6=陸軍行進曲 その1
TTITLE7=陸軍行進曲 その2
TTITLE8=朝日に匂う桜花
TTITLE9=陸軍士官学校 校歌
TTITLE10=江田島健児の歌
TTITLE11=特攻隊節
TTITLE12=綏芬河小唄
TTITLE13=軍隊小唄
TTITLE14=可愛いスーチャン
TTITLE15=ズンドコ節
TTITLE16=ラバウル小唄
TTITLE17=ハバロフスク小唄
TTITLE18=異国の丘
TTITLE19=同期の桜
EXTD=
EXTT0=
EXTT1=
EXTT2=
EXTT3=
EXTT4=
EXTT5=
EXTT6=
EXTT7=
EXTT8=
EXTT9=
EXTT10=
EXTT11=
EXTT12=
EXTT13=
EXTT14=
EXTT15=
EXTT16=
EXTT17=
EXTT18=
EXTT19=
PLAYORDER=
